<svg height="4014" width="720" xmlns="http://www.w3.org/2000/svg">
<rect height="4014" fill="#555" width="720"></rect>
<text fill="#7f7" font-family="Courier New" font-size="12" xml:space="preserve">
<tspan x="10" y="26">97 megabytes installed</tspan>
<tspan x="10" y="42"></tspan>
<tspan x="10" y="58">node_modules</tspan>
<tspan x="10" y="74">├── UNMET PEER DEPENDENCY grunt@&gt;=0.4.0</tspan>
<tspan x="10" y="90">└─┬ grunt-pageres@2.2.0 </tspan>
<tspan x="10" y="106">  ├── arrify@1.0.1 </tspan>
<tspan x="10" y="122">  └─┬ pageres@4.4.0 </tspan>
<tspan x="10" y="138">    ├── array-differ@1.0.0 </tspan>
<tspan x="10" y="154">    ├── array-uniq@1.0.3 </tspan>
<tspan x="10" y="170">    ├─┬ babel-runtime@6.23.0 </tspan>
<tspan x="10" y="186">    │ ├── core-js@2.4.1 </tspan>
<tspan x="10" y="202">    │ └── regenerator-runtime@0.10.3 </tspan>
<tspan x="10" y="218">    ├─┬ easydate@2.2.1 </tspan>
<tspan x="10" y="234">    │ └─┬ mocha@3.2.0 </tspan>
<tspan x="10" y="250">    │   ├── browser-stdout@1.3.0 </tspan>
<tspan x="10" y="266">    │   ├─┬ commander@2.9.0 </tspan>
<tspan x="10" y="282">    │   │ └── graceful-readlink@1.0.1 </tspan>
<tspan x="10" y="298">    │   ├─┬ debug@2.2.0 </tspan>
<tspan x="10" y="314">    │   │ └── ms@0.7.1 </tspan>
<tspan x="10" y="330">    │   ├── diff@1.4.0 </tspan>
<tspan x="10" y="346">    │   ├── escape-string-regexp@1.0.5 </tspan>
<tspan x="10" y="362">    │   ├── growl@1.9.2 </tspan>
<tspan x="10" y="378">    │   ├── json3@3.3.2 </tspan>
<tspan x="10" y="394">    │   ├─┬ lodash.create@3.1.1 </tspan>
<tspan x="10" y="410">    │   │ ├─┬ lodash._baseassign@3.2.0 </tspan>
<tspan x="10" y="426">    │   │ │ ├── lodash._basecopy@3.0.1 </tspan>
<tspan x="10" y="442">    │   │ │ └─┬ lodash.keys@3.1.2 </tspan>
<tspan x="10" y="458">    │   │ │   ├── lodash._getnative@3.9.1 </tspan>
<tspan x="10" y="474">    │   │ │   ├── lodash.isarguments@3.1.0 </tspan>
<tspan x="10" y="490">    │   │ │   └── lodash.isarray@3.0.4 </tspan>
<tspan x="10" y="506">    │   │ ├── lodash._basecreate@3.0.3 </tspan>
<tspan x="10" y="522">    │   │ └── lodash._isiterateecall@3.0.9 </tspan>
<tspan x="10" y="538">    │   └─┬ supports-color@3.1.2 </tspan>
<tspan x="10" y="554">    │     └── has-flag@1.0.0 </tspan>
<tspan x="10" y="570">    ├─┬ filenamify@2.0.0 </tspan>
<tspan x="10" y="586">    │ ├── filename-reserved-regex@2.0.0 </tspan>
<tspan x="10" y="602">    │ ├── strip-outer@1.0.0 </tspan>
<tspan x="10" y="618">    │ └── trim-repeated@1.0.0 </tspan>
<tspan x="10" y="634">    ├─┬ filenamify-url@1.0.0 </tspan>
<tspan x="10" y="650">    │ ├─┬ filenamify@1.2.1 </tspan>
<tspan x="10" y="666">    │ │ └── filename-reserved-regex@1.0.0 </tspan>
<tspan x="10" y="682">    │ └─┬ humanize-url@1.0.1 </tspan>
<tspan x="10" y="698">    │   ├─┬ normalize-url@1.9.1 </tspan>
<tspan x="10" y="714">    │   │ ├─┬ query-string@4.3.4 </tspan>
<tspan x="10" y="730">    │   │ │ └── strict-uri-encode@1.1.0 </tspan>
<tspan x="10" y="746">    │   │ └─┬ sort-keys@1.1.2 </tspan>
<tspan x="10" y="762">    │   │   └── is-plain-obj@1.1.0 </tspan>
<tspan x="10" y="778">    │   └── strip-url-auth@1.0.1 </tspan>
<tspan x="10" y="794">    ├─┬ fs-write-stream-atomic@1.0.10 </tspan>
<tspan x="10" y="810">    │ ├── graceful-fs@4.1.11 </tspan>
<tspan x="10" y="826">    │ ├── iferr@0.1.5 </tspan>
<tspan x="10" y="842">    │ ├── imurmurhash@0.1.4 </tspan>
<tspan x="10" y="858">    │ └─┬ readable-stream@2.2.9 </tspan>
<tspan x="10" y="874">    │   ├── buffer-shims@1.0.0 </tspan>
<tspan x="10" y="890">    │   ├── core-util-is@1.0.2 </tspan>
<tspan x="10" y="906">    │   ├── inherits@2.0.3 </tspan>
<tspan x="10" y="922">    │   ├── isarray@1.0.0 </tspan>
<tspan x="10" y="938">    │   ├── process-nextick-args@1.0.7 </tspan>
<tspan x="10" y="954">    │   ├── string_decoder@1.0.0 </tspan>
<tspan x="10" y="970">    │   └── util-deprecate@1.0.2 </tspan>
<tspan x="10" y="986">    ├─┬ get-res@3.0.0 </tspan>
<tspan x="10" y="1002">    │ ├─┬ meow@3.7.0 </tspan>
<tspan x="10" y="1018">    │ │ ├─┬ camelcase-keys@2.1.0 </tspan>
<tspan x="10" y="1034">    │ │ │ └── camelcase@2.1.1 </tspan>
<tspan x="10" y="1050">    │ │ ├── decamelize@1.2.0 </tspan>
<tspan x="10" y="1066">    │ │ ├─┬ loud-rejection@1.6.0 </tspan>
<tspan x="10" y="1082">    │ │ │ ├─┬ currently-unhandled@0.4.1 </tspan>
<tspan x="10" y="1098">    │ │ │ │ └── array-find-index@1.0.2 </tspan>
<tspan x="10" y="1114">    │ │ │ └── signal-exit@3.0.2 </tspan>
<tspan x="10" y="1130">    │ │ ├── map-obj@1.0.1 </tspan>
<tspan x="10" y="1146">    │ │ ├── minimist@1.2.0 </tspan>
<tspan x="10" y="1162">    │ │ ├─┬ normalize-package-data@2.3.6 </tspan>
<tspan x="10" y="1178">    │ │ │ ├── hosted-git-info@2.4.2 </tspan>
<tspan x="10" y="1194">    │ │ │ ├─┬ is-builtin-module@1.0.0 </tspan>
<tspan x="10" y="1210">    │ │ │ │ └── builtin-modules@1.1.1 </tspan>
<tspan x="10" y="1226">    │ │ │ ├── semver@5.3.0 </tspan>
<tspan x="10" y="1242">    │ │ │ └─┬ validate-npm-package-license@3.0.1 </tspan>
<tspan x="10" y="1258">    │ │ │   ├─┬ spdx-correct@1.0.2 </tspan>
<tspan x="10" y="1274">    │ │ │   │ └── spdx-license-ids@1.2.2 </tspan>
<tspan x="10" y="1290">    │ │ │   └── spdx-expression-parse@1.0.4 </tspan>
<tspan x="10" y="1306">    │ │ ├─┬ read-pkg-up@1.0.1 </tspan>
<tspan x="10" y="1322">    │ │ │ ├─┬ find-up@1.1.2 </tspan>
<tspan x="10" y="1338">    │ │ │ │ ├── path-exists@2.1.0 </tspan>
<tspan x="10" y="1354">    │ │ │ │ └─┬ pinkie-promise@2.0.1 </tspan>
<tspan x="10" y="1370">    │ │ │ │   └── pinkie@2.0.4 </tspan>
<tspan x="10" y="1386">    │ │ │ └─┬ read-pkg@1.1.0 </tspan>
<tspan x="10" y="1402">    │ │ │   ├─┬ load-json-file@1.1.0 </tspan>
<tspan x="10" y="1418">    │ │ │   │ ├─┬ parse-json@2.2.0 </tspan>
<tspan x="10" y="1434">    │ │ │   │ │ └─┬ error-ex@1.3.1 </tspan>
<tspan x="10" y="1450">    │ │ │   │ │   └── is-arrayish@0.2.1 </tspan>
<tspan x="10" y="1466">    │ │ │   │ └─┬ strip-bom@2.0.0 </tspan>
<tspan x="10" y="1482">    │ │ │   │   └── is-utf8@0.2.1 </tspan>
<tspan x="10" y="1498">    │ │ │   └── path-type@1.1.0 </tspan>
<tspan x="10" y="1514">    │ │ ├─┬ redent@1.0.0 </tspan>
<tspan x="10" y="1530">    │ │ │ ├─┬ indent-string@2.1.0 </tspan>
<tspan x="10" y="1546">    │ │ │ │ └─┬ repeating@2.0.1 </tspan>
<tspan x="10" y="1562">    │ │ │ │   └─┬ is-finite@1.0.2 </tspan>
<tspan x="10" y="1578">    │ │ │ │     └── number-is-nan@1.0.1 </tspan>
<tspan x="10" y="1594">    │ │ │ └─┬ strip-indent@1.0.1 </tspan>
<tspan x="10" y="1610">    │ │ │   └── get-stdin@4.0.1 </tspan>
<tspan x="10" y="1626">    │ │ └── trim-newlines@1.0.0 </tspan>
<tspan x="10" y="1642">    │ └─┬ w3counter@3.0.1 </tspan>
<tspan x="10" y="1658">    │   ├─┬ cheerio@0.19.0 </tspan>
<tspan x="10" y="1674">    │   │ ├─┬ css-select@1.0.0 </tspan>
<tspan x="10" y="1690">    │   │ │ ├── boolbase@1.0.0 </tspan>
<tspan x="10" y="1706">    │   │ │ ├── css-what@1.0.0 </tspan>
<tspan x="10" y="1722">    │   │ │ ├── domutils@1.4.3 </tspan>
<tspan x="10" y="1738">    │   │ │ └── nth-check@1.0.1 </tspan>
<tspan x="10" y="1754">    │   │ ├─┬ dom-serializer@0.1.0 </tspan>
<tspan x="10" y="1770">    │   │ │ └── domelementtype@1.1.3 </tspan>
<tspan x="10" y="1786">    │   │ ├── entities@1.1.1 </tspan>
<tspan x="10" y="1802">    │   │ ├─┬ htmlparser2@3.8.3 </tspan>
<tspan x="10" y="1818">    │   │ │ ├── domelementtype@1.3.0 </tspan>
<tspan x="10" y="1834">    │   │ │ ├── domhandler@2.3.0 </tspan>
<tspan x="10" y="1850">    │   │ │ ├── domutils@1.5.1 </tspan>
<tspan x="10" y="1866">    │   │ │ ├── entities@1.0.0 </tspan>
<tspan x="10" y="1882">    │   │ │ └─┬ readable-stream@1.1.14 </tspan>
<tspan x="10" y="1898">    │   │ │   ├── isarray@0.0.1 </tspan>
<tspan x="10" y="1914">    │   │ │   └── string_decoder@0.10.31 </tspan>
<tspan x="10" y="1930">    │   │ └── lodash@3.10.1 </tspan>
<tspan x="10" y="1946">    │   └─┬ got@6.7.1 </tspan>
<tspan x="10" y="1962">    │     ├─┬ create-error-class@3.0.2 </tspan>
<tspan x="10" y="1978">    │     │ └── capture-stack-trace@1.0.0 </tspan>
<tspan x="10" y="1994">    │     ├── duplexer3@0.1.4 </tspan>
<tspan x="10" y="2010">    │     ├── get-stream@3.0.0 </tspan>
<tspan x="10" y="2026">    │     ├── is-redirect@1.0.0 </tspan>
<tspan x="10" y="2042">    │     ├── is-retry-allowed@1.1.0 </tspan>
<tspan x="10" y="2058">    │     ├── is-stream@1.1.0 </tspan>
<tspan x="10" y="2074">    │     ├── lowercase-keys@1.0.0 </tspan>
<tspan x="10" y="2090">    │     ├── safe-buffer@5.0.1 </tspan>
<tspan x="10" y="2106">    │     ├── timed-out@4.0.1 </tspan>
<tspan x="10" y="2122">    │     ├── unzip-response@2.0.1 </tspan>
<tspan x="10" y="2138">    │     └── url-parse-lax@1.0.0 </tspan>
<tspan x="10" y="2154">    ├─┬ lodash.template@4.4.0 </tspan>
<tspan x="10" y="2170">    │ ├── lodash._reinterpolate@3.0.0 </tspan>
<tspan x="10" y="2186">    │ └── lodash.templatesettings@4.1.0 </tspan>
<tspan x="10" y="2202">    ├─┬ log-symbols@1.0.2 </tspan>
<tspan x="10" y="2218">    │ └─┬ chalk@1.1.3 </tspan>
<tspan x="10" y="2234">    │   ├── ansi-styles@2.2.1 </tspan>
<tspan x="10" y="2250">    │   ├─┬ has-ansi@2.0.0 </tspan>
<tspan x="10" y="2266">    │   │ └── ansi-regex@2.1.1 </tspan>
<tspan x="10" y="2282">    │   ├── strip-ansi@3.0.1 </tspan>
<tspan x="10" y="2298">    │   └── supports-color@2.0.0 </tspan>
<tspan x="10" y="2314">    ├─┬ mem@1.1.0 </tspan>
<tspan x="10" y="2330">    │ └── mimic-fn@1.1.0 </tspan>
<tspan x="10" y="2346">    ├─┬ mkdirp@0.5.1 </tspan>
<tspan x="10" y="2362">    │ └── minimist@0.0.8 </tspan>
<tspan x="10" y="2378">    ├── pify@2.3.0 </tspan>
<tspan x="10" y="2394">    ├─┬ plur@2.1.2 </tspan>
<tspan x="10" y="2410">    │ └── irregular-plurals@1.2.0 </tspan>
<tspan x="10" y="2426">    ├─┬ protocolify@2.0.0 </tspan>
<tspan x="10" y="2442">    │ ├── file-url@2.0.2 </tspan>
<tspan x="10" y="2458">    │ └── prepend-http@1.0.4 </tspan>
<tspan x="10" y="2474">    ├─┬ rimraf@2.6.1 </tspan>
<tspan x="10" y="2490">    │ └─┬ glob@7.0.5 </tspan>
<tspan x="10" y="2506">    │   ├── fs.realpath@1.0.0 </tspan>
<tspan x="10" y="2522">    │   ├─┬ inflight@1.0.6 </tspan>
<tspan x="10" y="2538">    │   │ └── wrappy@1.0.2 </tspan>
<tspan x="10" y="2554">    │   ├─┬ minimatch@3.0.3 </tspan>
<tspan x="10" y="2570">    │   │ └─┬ brace-expansion@1.1.7 </tspan>
<tspan x="10" y="2586">    │   │   ├── balanced-match@0.4.2 </tspan>
<tspan x="10" y="2602">    │   │   └── concat-map@0.0.1 </tspan>
<tspan x="10" y="2618">    │   ├── once@1.4.0 </tspan>
<tspan x="10" y="2634">    │   └── path-is-absolute@1.0.1 </tspan>
<tspan x="10" y="2650">    ├─┬ screenshot-stream@4.1.0 </tspan>
<tspan x="10" y="2666">    │ ├── base64-stream@0.1.3 </tspan>
<tspan x="10" y="2682">    │ ├── byline@4.2.2 </tspan>
<tspan x="10" y="2698">    │ ├── object-assign@4.1.1 </tspan>
<tspan x="10" y="2714">    │ ├─┬ parse-cookie-phantomjs@1.2.0 </tspan>
<tspan x="10" y="2730">    │ │ └─┬ tough-cookie@2.3.2 </tspan>
<tspan x="10" y="2746">    │ │   └── punycode@1.4.1 </tspan>
<tspan x="10" y="2762">    │ └─┬ phantom-bridge@2.0.1 </tspan>
<tspan x="10" y="2778">    │   └─┬ phantomjs-prebuilt@2.1.14 </tspan>
<tspan x="10" y="2794">    │     ├── es6-promise@4.0.5 </tspan>
<tspan x="10" y="2810">    │     ├─┬ extract-zip@1.5.0 </tspan>
<tspan x="10" y="2826">    │     │ ├─┬ concat-stream@1.5.0 </tspan>
<tspan x="10" y="2842">    │     │ │ ├─┬ readable-stream@2.0.6 </tspan>
<tspan x="10" y="2858">    │     │ │ │ └── string_decoder@0.10.31 </tspan>
<tspan x="10" y="2874">    │     │ │ └── typedarray@0.0.6 </tspan>
<tspan x="10" y="2890">    │     │ ├── debug@0.7.4 </tspan>
<tspan x="10" y="2906">    │     │ ├── mkdirp@0.5.0 </tspan>
<tspan x="10" y="2922">    │     │ └─┬ yauzl@2.4.1 </tspan>
<tspan x="10" y="2938">    │     │   └─┬ fd-slicer@1.0.1 </tspan>
<tspan x="10" y="2954">    │     │     └── pend@1.2.0 </tspan>
<tspan x="10" y="2970">    │     ├─┬ fs-extra@1.0.0 </tspan>
<tspan x="10" y="2986">    │     │ ├── jsonfile@2.4.0 </tspan>
<tspan x="10" y="3002">    │     │ └── klaw@1.3.1 </tspan>
<tspan x="10" y="3018">    │     ├── hasha@2.2.0 </tspan>
<tspan x="10" y="3034">    │     ├── kew@0.7.0 </tspan>
<tspan x="10" y="3050">    │     ├── progress@1.1.8 </tspan>
<tspan x="10" y="3066">    │     ├─┬ request@2.79.0 </tspan>
<tspan x="10" y="3082">    │     │ ├── aws-sign2@0.6.0 </tspan>
<tspan x="10" y="3098">    │     │ ├── aws4@1.6.0 </tspan>
<tspan x="10" y="3114">    │     │ ├── caseless@0.11.0 </tspan>
<tspan x="10" y="3130">    │     │ ├─┬ combined-stream@1.0.5 </tspan>
<tspan x="10" y="3146">    │     │ │ └── delayed-stream@1.0.0 </tspan>
<tspan x="10" y="3162">    │     │ ├── extend@3.0.0 </tspan>
<tspan x="10" y="3178">    │     │ ├── forever-agent@0.6.1 </tspan>
<tspan x="10" y="3194">    │     │ ├─┬ form-data@2.1.4 </tspan>
<tspan x="10" y="3210">    │     │ │ └── asynckit@0.4.0 </tspan>
<tspan x="10" y="3226">    │     │ ├─┬ har-validator@2.0.6 </tspan>
<tspan x="10" y="3242">    │     │ │ └─┬ is-my-json-valid@2.16.0 </tspan>
<tspan x="10" y="3258">    │     │ │   ├── generate-function@2.0.0 </tspan>
<tspan x="10" y="3274">    │     │ │   ├─┬ generate-object-property@1.2.0 </tspan>
<tspan x="10" y="3290">    │     │ │   │ └── is-property@1.0.2 </tspan>
<tspan x="10" y="3306">    │     │ │   ├── jsonpointer@4.0.1 </tspan>
<tspan x="10" y="3322">    │     │ │   └── xtend@4.0.1 </tspan>
<tspan x="10" y="3338">    │     │ ├─┬ hawk@3.1.3 </tspan>
<tspan x="10" y="3354">    │     │ │ ├── boom@2.10.1 </tspan>
<tspan x="10" y="3370">    │     │ │ ├── cryptiles@2.0.5 </tspan>
<tspan x="10" y="3386">    │     │ │ ├── hoek@2.16.3 </tspan>
<tspan x="10" y="3402">    │     │ │ └── sntp@1.0.9 </tspan>
<tspan x="10" y="3418">    │     │ ├─┬ http-signature@1.1.1 </tspan>
<tspan x="10" y="3434">    │     │ │ ├── assert-plus@0.2.0 </tspan>
<tspan x="10" y="3450">    │     │ │ ├─┬ jsprim@1.4.0 </tspan>
<tspan x="10" y="3466">    │     │ │ │ ├── assert-plus@1.0.0 </tspan>
<tspan x="10" y="3482">    │     │ │ │ ├── extsprintf@1.0.2 </tspan>
<tspan x="10" y="3498">    │     │ │ │ ├── json-schema@0.2.3 </tspan>
<tspan x="10" y="3514">    │     │ │ │ └── verror@1.3.6 </tspan>
<tspan x="10" y="3530">    │     │ │ └─┬ sshpk@1.13.0 </tspan>
<tspan x="10" y="3546">    │     │ │   ├── asn1@0.2.3 </tspan>
<tspan x="10" y="3562">    │     │ │   ├── assert-plus@1.0.0 </tspan>
<tspan x="10" y="3578">    │     │ │   ├── bcrypt-pbkdf@1.0.1 </tspan>
<tspan x="10" y="3594">    │     │ │   ├─┬ dashdash@1.14.1 </tspan>
<tspan x="10" y="3610">    │     │ │   │ └── assert-plus@1.0.0 </tspan>
<tspan x="10" y="3626">    │     │ │   ├── ecc-jsbn@0.1.1 </tspan>
<tspan x="10" y="3642">    │     │ │   ├─┬ getpass@0.1.6 </tspan>
<tspan x="10" y="3658">    │     │ │   │ └── assert-plus@1.0.0 </tspan>
<tspan x="10" y="3674">    │     │ │   ├── jodid25519@1.0.2 </tspan>
<tspan x="10" y="3690">    │     │ │   ├── jsbn@0.1.1 </tspan>
<tspan x="10" y="3706">    │     │ │   └── tweetnacl@0.14.5 </tspan>
<tspan x="10" y="3722">    │     │ ├── is-typedarray@1.0.0 </tspan>
<tspan x="10" y="3738">    │     │ ├── isstream@0.1.2 </tspan>
<tspan x="10" y="3754">    │     │ ├── json-stringify-safe@5.0.1 </tspan>
<tspan x="10" y="3770">    │     │ ├─┬ mime-types@2.1.15 </tspan>
<tspan x="10" y="3786">    │     │ │ └── mime-db@1.27.0 </tspan>
<tspan x="10" y="3802">    │     │ ├── oauth-sign@0.8.2 </tspan>
<tspan x="10" y="3818">    │     │ ├── qs@6.3.2 </tspan>
<tspan x="10" y="3834">    │     │ ├── stringstream@0.0.5 </tspan>
<tspan x="10" y="3850">    │     │ ├── tunnel-agent@0.4.3 </tspan>
<tspan x="10" y="3866">    │     │ └── uuid@3.0.1 </tspan>
<tspan x="10" y="3882">    │     ├─┬ request-progress@2.0.1 </tspan>
<tspan x="10" y="3898">    │     │ └── throttleit@1.0.0 </tspan>
<tspan x="10" y="3914">    │     └─┬ which@1.2.14 </tspan>
<tspan x="10" y="3930">    │       └── isexe@2.0.0 </tspan>
<tspan x="10" y="3946">    ├─┬ unused-filename@0.1.0 </tspan>
<tspan x="10" y="3962">    │ ├── modify-filename@1.1.0 </tspan>
<tspan x="10" y="3978">    │ └── path-exists@3.0.0 </tspan>
<tspan x="10" y="3994">    └── viewport-list@5.1.1</tspan>
</text>
</svg>
